<svg fill="none" height="44" viewBox="0 0 50 44" width="50" xmlns="http://www.w3.org/2000/svg">
    <path
        d="M19.6367 43.9828L17.4883 43.3726C17.2133 43.2953 17.0586 43.0117 17.1359 42.7367L29.2273 0.37809C29.3047 0.10309 29.5883 -0.0515973 29.8633 0.0257464L32.0117 0.635902C32.2867 0.713246 32.4414 0.99684 32.364 1.27184L20.2726 43.6218C20.1953 43.8968 19.9031 44.0601 19.6367 43.9828ZM13.1398 33.2148L14.7297 31.4187C14.893 31.2382 14.8672 30.9632 14.6867 30.8085L4.28828 22L14.6867 13.1914C14.8672 13.0367 14.893 12.7617 14.7297 12.5812L13.1398 10.7851C12.9851 10.6046 12.7101 10.5875 12.5297 10.7507L0.146091 21.682C-0.0515655 21.8539 -0.0515655 22.1546 0.146091 22.3265L12.5297 33.2578C12.7101 33.4124 12.9851 33.3953 13.1398 33.2148ZM36.9703 33.2492L49.3539 22.3179C49.5515 22.146 49.5515 21.8453 49.3539 21.6734L36.9703 10.7507C36.7898 10.5961 36.5234 10.6132 36.3601 10.7851L34.7703 12.5812C34.607 12.7617 34.6328 13.0367 34.8133 13.1914L45.2117 22L34.8133 30.8085C34.6328 30.9632 34.607 31.2382 34.7703 31.4187L36.3601 33.2148C36.5148 33.3953 36.7898 33.4124 36.9703 33.2492Z"
        fill="#000" />
</svg>
