<?xml version="1.0" encoding="utf-8"?>
<svg viewBox="243.887 114.219 34 27" xmlns="http://www.w3.org/2000/svg">
    <path style=""
        d="M33.3784 18.8947L32.5019 18.3937C32.5444 17.9455 32.5444 17.492 32.5019 17.0438L33.3838 16.5428C33.8884 16.2527 34.1169 15.6621 33.9416 15.1189C33.5591 13.885 32.8844 12.7248 31.9919 11.7703C31.5987 11.3432 30.9666 11.2482 30.4672 11.5383L29.5906 12.0393C29.2187 11.7756 28.8256 11.5488 28.4112 11.3643V10.3623C28.4112 9.78223 28.0128 9.2918 27.4444 9.16523C26.1747 8.88047 24.8253 8.88047 23.5556 9.16523C22.9872 9.2918 22.5887 9.7875 22.5887 10.3623V11.3643C22.1744 11.5488 21.7812 11.7756 21.4094 12.0393L20.5328 11.5383C20.0281 11.2482 19.4012 11.3432 19.0081 11.7703C18.1209 12.7248 17.4462 13.885 17.0584 15.1137C16.8831 15.6621 17.1222 16.2633 17.6216 16.548L18.4981 17.049C18.4556 17.4973 18.4556 17.9508 18.4981 18.399L17.6162 18.9C17.1222 19.1848 16.8831 19.7912 17.0584 20.3291C17.4409 21.5631 18.1156 22.7232 19.0081 23.6777C19.4012 24.0996 20.0281 24.1945 20.5328 23.9098L21.4094 23.4088C21.7812 23.6725 22.1744 23.8992 22.5887 24.0838V25.0857C22.5887 25.6658 22.9872 26.1562 23.5556 26.2828C24.1931 26.4252 24.8466 26.4937 25.5 26.4937C26.1534 26.4937 26.8122 26.4252 27.4444 26.2828C28.0128 26.1562 28.4112 25.6605 28.4112 25.0857V24.0838C28.8256 23.8992 29.2187 23.6725 29.5906 23.4088L30.4672 23.9098C30.9666 24.1945 31.5987 24.0996 31.9919 23.6777C32.8791 22.7232 33.5537 21.5631 33.9416 20.3344C34.1169 19.7859 33.8778 19.1795 33.3784 18.8947ZM30.6372 19.2744L32.1991 20.1709C31.9228 20.925 31.5084 21.6369 30.9878 22.2539L29.4259 21.3574C28.2891 22.3225 28.1244 22.4174 26.7112 22.9131V24.7061C25.9091 24.8432 25.0856 24.8432 24.2887 24.7061V22.9131C22.8597 22.4121 22.6844 22.2961 21.5741 21.3574L20.0122 22.2539C19.4916 21.6316 19.0772 20.925 18.8009 20.1709L20.3628 19.2744C20.1025 17.8611 20.0866 17.6607 20.3628 16.1631L18.8009 15.2666C19.0772 14.5125 19.4916 13.8059 20.0122 13.1836L21.5741 14.0801C22.7109 13.115 22.8756 13.0201 24.2887 12.5244V10.7314C25.0909 10.5996 25.9197 10.5996 26.7112 10.7314V12.5244C28.135 13.0254 28.3156 13.1361 29.4259 14.0801L30.9878 13.1836C31.5084 13.8059 31.9228 14.5125 32.1991 15.2666L30.6372 16.1631C30.8975 17.5764 30.9134 17.7768 30.6372 19.2744ZM25.5 14.3174C23.6087 14.3174 22.0734 15.8467 22.0734 17.7188C22.0734 19.5908 23.6087 21.1201 25.5 21.1201C27.3912 21.1201 28.9266 19.5908 28.9266 17.7188C28.9266 15.8467 27.3912 14.3174 25.5 14.3174ZM25.5 19.4326C24.5491 19.4326 23.7734 18.6627 23.7734 17.7188C23.7734 16.7748 24.5491 16.0049 25.5 16.0049C26.4509 16.0049 27.2266 16.7748 27.2266 17.7188C27.2266 18.6627 26.4509 19.4326 25.5 19.4326ZM11.9 13.5C15.6559 13.5 18.7 10.4783 18.7 6.75C18.7 3.02168 15.6559 0 11.9 0C8.14406 0 5.1 3.02168 5.1 6.75C5.1 10.4783 8.14406 13.5 11.9 13.5ZM11.9 1.6875C14.7103 1.6875 17 3.96035 17 6.75C17 9.53965 14.7103 11.8125 11.9 11.8125C9.08969 11.8125 6.8 9.53965 6.8 6.75C6.8 3.96035 9.08969 1.6875 11.9 1.6875ZM2.55 25.3125C2.0825 25.3125 1.7 24.9328 1.7 24.4688V22.275C1.7 19.2955 4.13844 16.875 7.14 16.875C8.18125 16.875 9.21719 17.7188 11.9 17.7188C12.92 17.7188 13.9187 17.5447 14.9016 17.26C14.9281 16.6482 14.9972 16.0471 15.1247 15.467C14.6519 15.6094 13.5256 16.0312 11.9 16.0312C9.39781 16.0312 8.67 15.1875 7.14 15.1875C3.19812 15.1875 0 18.3621 0 22.275V24.4688C0 25.8662 1.14219 27 2.55 27H20.4531C19.6031 26.5465 18.8275 25.9717 18.1422 25.3125H2.55Z"
        transform="matrix(1, 0, 0, 1, 243.887238, 114.218773)" />
</svg>