<svg fill="none" height="30" viewBox="0 0 19 30" width="19" xmlns="http://www.w3.org/2000/svg">
    <g clip-path="url(#clip0)">
        <path
            d="M11.3637 15L17.373 8.99063L18.6123 7.75137C18.7951 7.56855 18.7951 7.27148 18.6123 7.08867L17.2863 5.7627C17.1035 5.57988 16.8064 5.57988 16.6236 5.7627L9.375 13.0113L2.12637 5.76211C1.94355 5.5793 1.64648 5.5793 1.46367 5.76211L0.137109 7.08809C-0.0457031 7.2709 -0.0457031 7.56797 0.137109 7.75078L7.38633 15L0.137109 22.2486C-0.0457031 22.4314 -0.0457031 22.7285 0.137109 22.9113L1.46309 24.2373C1.6459 24.4201 1.94297 24.4201 2.12578 24.2373L9.375 16.9887L15.3844 22.998L16.6236 24.2373C16.8064 24.4201 17.1035 24.4201 17.2863 24.2373L18.6123 22.9113C18.7951 22.7285 18.7951 22.4314 18.6123 22.2486L11.3637 15Z"
            fill="#000" />
    </g>
    <defs>
        <clipPath id="clip0">
            <rect fill="#000" height="30" width="18.75" />
        </clipPath>
    </defs>
</svg>
