<svg fill="none" height="59" viewBox="0 0 207 59" width="207" xmlns="http://www.w3.org/2000/svg">
    <path
        d="M51.9137 3.28577C51.5011 3.88744 51.0885 4.48912 50.6732 5.08893C49.8041 4.8495 48.9405 4.59128 48.0768 4.33305C47.0294 4.01988 45.982 3.70671 44.9251 3.42712C45.555 4.23586 46.1739 5.05264 46.7928 5.86943C47.3775 6.64114 47.9623 7.41286 48.5563 8.17783C48.1571 8.75888 47.7542 9.3374 47.3514 9.91591C46.6239 10.9603 45.8963 12.0047 45.1917 13.0638C46.0853 12.7682 46.9725 12.4543 47.8597 12.1403C48.8448 11.7917 49.8302 11.443 50.8243 11.1194C52.0311 12.6853 53.2093 14.2745 54.4325 15.8259C54.472 13.8947 54.3907 11.9652 54.3092 10.0375L54.3026 9.87541C54.9149 9.66107 55.5262 9.44298 56.1376 9.22485C57.4071 8.77188 58.6769 8.31877 59.9581 7.89885C58.7777 7.50249 57.5826 7.15376 56.3878 6.80513C55.681 6.59891 54.9742 6.3927 54.2706 6.17668C54.1339 4.5919 54.1134 2.99812 54.0931 1.40706C54.0877 0.992401 54.0824 0.577927 54.0751 0.163849C53.3458 1.19781 52.6297 2.24176 51.9137 3.28577ZM34.1261 0.606461C35.057 1.77637 35.9718 2.95827 36.8871 4.14096L36.9559 4.22945C37.2359 4.59125 37.516 4.95311 37.7965 5.3147C38.6212 5.02359 39.4442 4.72699 40.2672 4.43033C41.3136 4.05315 42.3605 3.67589 43.411 3.30975C42.8976 4.10245 42.3631 4.88036 41.8287 5.65823C41.2345 6.52341 40.64 7.38855 40.0748 8.27396C40.4374 8.74309 40.8009 9.21158 41.1646 9.68015C42.0189 10.781 42.8734 11.8822 43.7149 12.9929C42.9574 12.7806 42.2027 12.5561 41.4481 12.3316C40.2943 11.9883 39.1405 11.645 37.9757 11.3452C37.5604 11.9356 37.1556 12.5337 36.7508 13.1317C36.0335 14.1917 35.3163 15.2515 34.5401 16.2685C34.5384 14.2886 34.4798 12.3084 34.4354 10.3285C33.2259 9.91447 31.9967 9.55981 30.7679 9.20535L30.7643 9.20439C30.0687 9.0038 29.3734 8.80327 28.682 8.59206C29.6258 8.23245 30.579 7.89658 31.5326 7.56067C32.4645 7.23233 33.3963 6.90396 34.3197 6.55334C34.2186 5.16348 34.192 3.77074 34.1654 2.37845L34.1495 1.57367C34.1429 1.25119 34.1354 0.928772 34.1261 0.606461ZM63.6969 11.8408C62.8683 10.8033 62.0396 9.76587 61.1808 8.75211C61.2657 9.77185 61.3028 10.7939 61.3399 11.816C61.3751 12.7873 61.4105 13.7585 61.4867 14.7276C59.6346 15.4367 57.7811 16.1406 55.9146 16.8124C57.4718 17.3065 59.0528 17.7262 60.6324 18.1454L60.6522 18.1506C60.9862 18.2393 61.3202 18.328 61.6539 18.4174C61.6805 19.175 61.7235 19.9321 61.7665 20.6894C61.838 21.945 61.9095 23.2009 61.9061 24.4604C62.4911 23.62 63.0536 22.7642 63.6161 21.9083C64.1659 21.0716 64.7157 20.2349 65.2867 19.4126C66.3282 19.7066 67.3719 19.9917 68.4154 20.2767C69.2896 20.5155 70.1639 20.7542 71.0365 20.9982C70.5248 20.3564 70.0101 19.7172 69.4955 19.0782C68.7516 18.1546 68.0079 17.2313 67.2738 16.3004L67.7835 15.5291C68.7127 14.1236 69.6412 12.7189 70.546 11.2989C69.7735 11.5822 69.0052 11.8768 68.2372 12.1715L68.2306 12.1741C67.1395 12.5926 66.0487 13.011 64.9454 13.3964C64.5267 12.8799 64.1117 12.3604 63.6969 11.8408ZM165.172 17.5534C165.697 17.5534 166.222 17.5529 166.747 17.5523C168.067 17.5509 169.389 17.5495 170.711 17.557C170.708 18.4145 170.655 19.2697 170.601 20.1249C170.538 21.1186 170.476 22.1123 170.494 23.1096L169.407 23.1121L168.561 23.1131C167.352 23.1141 166.144 23.1124 164.936 23.1078C164.952 21.7737 165.023 20.4426 165.094 19.1107V19.108V19.1052V19.1025C165.121 18.5863 165.148 18.07 165.172 17.5534ZM97.5387 19.0643C94.423 19.004 91.078 19.8499 88.8761 22.1854C87.0025 24.2686 86.0035 27.2348 86.4549 30.0163C87.1856 33.2282 90.2818 35.1549 93.2499 36.0115C93.9615 36.2674 94.7181 36.4017 95.474 36.5358C96.755 36.7632 98.0338 36.9901 99.0868 37.8081C100.022 38.498 100.352 39.7918 99.9308 40.8655C99.3585 42.8007 97.3165 43.7519 95.4625 44.0186C91.9828 44.2868 88.3692 43.8979 85.1913 42.3744C85.1578 43.5077 85.0641 44.6371 84.9703 45.7668C84.9344 46.2 84.8985 46.6331 84.8661 47.0666C88.3531 49.0074 92.5194 48.9398 96.3849 48.6629C99.8368 48.2768 103.534 46.6027 104.948 43.2203C105.935 40.718 106.28 37.5969 104.628 35.2899C103.004 32.9456 100.142 31.9093 97.441 31.4419C95.6014 31.2036 93.6214 30.7024 92.3258 29.284C91.0067 27.7626 92.036 25.3065 93.7723 24.6008C97.423 22.9835 101.591 24.0692 105.067 25.6316C105.157 24.8034 105.244 23.9746 105.33 23.1458C105.402 22.4647 105.473 21.7836 105.546 21.1028C103.485 19.4879 100.752 19.2937 98.2084 19.1129C97.9835 19.0969 97.7601 19.0811 97.5387 19.0643ZM22.7865 19.802C24.3214 19.8121 25.8565 19.8096 27.3917 19.807H27.3946C29.3463 19.8037 31.2984 19.8004 33.2499 19.8233C36.7992 20.0633 41.0716 21.2291 42.5792 24.8284C43.8819 28.6923 42.2843 33.5677 38.5658 35.496C35.1053 37.3161 31.0636 37.3568 27.2459 37.3657C27.0353 39.5702 26.8929 41.7818 26.7506 43.9935C26.6573 45.4427 26.5641 46.8919 26.4515 48.3392C25.1373 48.3559 23.8221 48.3531 22.5074 48.3503C22.0084 48.3492 21.5096 48.3481 21.0108 48.3481C21.1681 45.7593 21.3207 43.1695 21.4732 40.5795C21.8812 33.6511 22.2896 26.721 22.7865 19.802ZM27.796 28.2402C27.8507 26.9803 27.9054 25.7204 27.962 24.4604C28.5948 24.4766 29.2306 24.4636 29.8666 24.4506C31.2599 24.4221 32.6546 24.3936 34.0228 24.6719C35.3595 24.9882 36.8094 25.6939 37.2789 27.0837C37.8619 28.8023 36.9164 30.7417 35.3541 31.5715C33.5482 32.6918 31.4383 32.7112 29.3683 32.7303C28.7713 32.7358 28.1778 32.7412 27.5958 32.7731L27.6483 31.608C27.6825 30.8424 27.7159 30.0769 27.7491 29.3113L27.796 28.2402ZM179.77 25.0273C180.309 25.0212 180.847 25.018 181.386 25.0166C182.178 25.0145 182.971 25.0162 183.763 25.0179C184.294 25.019 184.825 25.0202 185.356 25.0202C185.342 25.3564 185.325 25.6929 185.307 26.0296V26.0324V26.0353V26.0381V26.0409V26.0438C185.293 26.3249 185.278 26.6061 185.265 26.8874C185.26 27.0142 185.254 27.1411 185.25 27.268C185.246 27.3766 185.242 27.4852 185.239 27.5938C185.803 27.693 186.369 27.7798 186.937 27.8668C187.142 27.8982 187.348 27.9297 187.553 27.9618C187.5 28.8105 187.456 29.6609 187.413 30.5114C187.381 31.1251 187.35 31.7388 187.315 32.3519C184.571 31.3761 181.03 30.9371 178.739 33.1234C176.725 35.2579 176.224 38.5744 176.963 41.3437C177.436 43.0497 179.036 44.2922 180.788 44.42C182.852 44.5392 184.956 44.1802 186.851 43.3502C186.881 44.2789 186.83 45.2055 186.778 46.1327L186.763 46.4113C186.751 46.632 186.74 46.8528 186.729 47.0737C186.718 47.3147 186.709 47.5558 186.703 47.7971C185.877 48.0692 185.033 48.2929 184.174 48.4279C184.084 49.0218 184.06 49.6222 184.037 50.2225L184.027 50.4756C182.183 50.4792 180.34 50.4774 178.496 50.4756H178.494H178.492H178.49H178.487H178.485H178.483C178.485 50.308 178.491 50.1406 178.499 49.9733C178.512 49.7216 178.53 49.4702 178.547 49.2189C178.558 49.0614 178.57 48.9038 178.579 48.7463C176.839 48.4832 175.074 47.8984 173.785 46.6544C172.058 45.0493 171.386 42.6268 171.302 40.3359C171.177 37.1312 171.647 33.6867 173.679 31.09C175.138 29.2042 177.399 28.1536 179.69 27.6792C179.723 27.2275 179.728 26.7744 179.732 26.3212L179.733 26.2418L179.737 25.9245C179.739 25.8329 179.74 25.7413 179.743 25.6497L179.746 25.5279L179.749 25.4511C179.754 25.3098 179.761 25.1685 179.77 25.0273ZM58.5218 28.2533C56.1402 27.1496 53.4015 26.8508 50.8207 27.2954C50.4718 27.3446 50.1214 27.3907 49.7709 27.4368L49.7665 27.4374C48.2328 27.6391 46.6925 27.8417 45.2167 28.31C45.2132 28.9766 45.1612 29.6401 45.1092 30.3034C45.0506 31.0515 44.992 31.7992 45.0033 32.5509C47.3192 31.9129 49.7062 31.3813 52.1219 31.4562C53.3553 31.4436 54.7325 31.6569 55.641 32.5669C56.336 33.278 56.3448 34.3533 56.183 35.272C52.2533 34.7691 47.6144 34.6571 44.5111 37.5327C42.4688 39.5432 41.8165 42.906 43.0321 45.5112C43.9103 47.3652 45.8905 48.4317 47.8614 48.6931C50.14 49.0892 52.6905 48.8493 54.5816 47.4097C54.6532 46.893 54.7293 46.377 54.8055 45.8609C54.9474 44.9019 55.0892 43.9431 55.2001 42.9807C53.8617 43.8674 52.3209 44.5264 50.6964 44.5676C49.3116 44.5551 48.1014 43.2169 48.2792 41.8375C48.5243 40.2948 50.1061 39.4239 51.5191 39.1876C52.9996 39.0472 54.5531 39.0631 55.9557 39.6159L55.8846 40.7845L55.8824 40.8175C55.7296 43.3252 55.5768 45.8341 55.4632 48.3428L55.6969 48.3417L56.0873 48.341L56.5978 48.3416C56.8885 48.3423 57.1793 48.3436 57.4701 48.3448C58.7008 48.3501 59.932 48.3554 61.1629 48.3197C61.2787 45.1809 61.4503 42.0443 61.6219 38.9076C61.7223 37.0763 61.8224 35.2449 61.9115 33.4131C62.0646 31.1788 60.4806 29.1633 58.5218 28.2533ZM133.363 30.1283C135.148 27.7467 138.286 26.8563 141.152 27.1709C141.026 27.8943 140.923 28.6218 140.819 29.3494L140.816 29.3723C140.701 30.1848 140.586 30.9974 140.44 31.8044L140.22 31.8237C137.789 32.0361 134.615 32.3133 133.528 34.8384C133.316 37.1358 133.194 39.4436 133.071 41.752V41.7547C132.956 43.9279 132.841 46.1017 132.65 48.2681C130.93 48.2663 129.208 48.2645 127.487 48.2699C127.726 43.1928 128.043 38.1176 128.36 33.0421C128.474 31.2112 128.588 29.3803 128.699 27.5493L130.143 27.5486L131.801 27.549L133.352 27.5493C133.354 27.877 133.354 28.2048 133.354 28.5328V28.9148L133.355 29.3041C133.356 29.5788 133.358 29.8536 133.363 30.1283ZM202.074 27.7751C198.016 26.3674 192.832 27.2811 190.311 31.008C187.795 34.8064 186.935 39.9731 188.856 44.2016C190.041 46.8855 192.853 48.5826 195.74 48.7214C198.972 48.8296 202.273 48.6271 205.366 47.6142C205.38 47.1204 205.41 46.6269 205.44 46.1334C205.493 45.2685 205.546 44.4036 205.513 43.5366C203.339 44.2439 201.059 44.7187 198.764 44.6248C197.087 44.6494 195.261 44.1554 194.165 42.8099C193.42 41.9016 193.203 40.7072 193.16 39.5663C197.63 39.552 202.102 39.552 206.574 39.5663C207.147 37.0282 207.111 34.2909 206.19 31.8366C205.493 29.9631 203.962 28.4381 202.074 27.7751ZM64.8429 27.5485C64.1026 27.5592 63.3624 27.5698 62.6275 27.5493L63.4356 29.8385L64.8502 33.851L64.8795 33.9345C66.4288 38.3296 67.9784 42.7249 69.5399 47.1146L68.9818 48.2753L68.0746 50.1597L68.065 50.179C66.7916 52.8224 65.5184 55.4658 64.2645 58.1185C66.0614 58.1203 67.8565 58.1236 69.6534 58.1167C72.0194 53.3416 74.3995 48.5736 76.7796 43.8056L76.7958 43.7728L76.8075 43.7493C79.5018 38.3526 82.1961 32.956 84.8692 27.5493H79.0077C78.4029 28.8273 77.8031 30.1082 77.2032 31.3891L77.1864 31.4246L77.1856 31.4268L77.1849 31.4289L77.1842 31.4311L77.1834 31.4332L77.1827 31.4354L77.182 31.4375L77.1813 31.4397L77.1805 31.4418L77.1798 31.444L77.1791 31.4461L77.1783 31.4483L77.1776 31.4504L77.1769 31.4526C75.7438 34.51 74.3104 37.568 72.8082 40.5883C72.0318 38.3651 71.2779 36.1333 70.5243 33.9018L70.514 33.8711C69.8102 31.7867 69.1063 29.7026 68.3844 27.626C67.2184 27.5143 66.0306 27.5314 64.8429 27.5485ZM164.627 27.6222C165.666 27.6295 166.704 27.6283 167.743 27.6271C168.485 27.6262 169.228 27.6253 169.97 27.6276C169.492 33.7129 169.088 39.8039 168.686 45.8943L168.528 48.2699C166.816 48.2627 165.106 48.2663 163.393 48.2699H163.385L163.559 45.2286C163.895 39.3587 164.231 33.4891 164.627 27.6222ZM142.204 27.6311C142.736 27.6311 143.268 27.6297 143.8 27.6282C145.131 27.6246 146.461 27.6209 147.792 27.6401C148.491 30.0229 149.187 32.4067 149.882 34.7905L149.893 34.8249L149.903 34.8594L149.913 34.8941L149.926 34.9376L150.616 37.3006L151.217 39.3564L151.762 41.2191C151.803 41.2209 151.885 41.2281 151.926 41.2317C153.838 36.7029 155.749 32.1724 157.649 27.6383C159.054 27.621 160.46 27.6246 161.867 27.6283C162.333 27.6295 162.799 27.6307 163.266 27.6311C161.139 32.4633 158.989 37.2849 156.839 42.1064L155.985 44.0226L154.96 46.3236L154.091 48.2753C153.361 48.2489 152.627 48.2585 151.893 48.2682C150.85 48.2819 149.807 48.2956 148.78 48.2057C147.488 44.2415 146.226 40.2664 144.965 36.2912L144.963 36.2848L144.961 36.2783L144.96 36.2751C144.045 33.3924 143.13 30.5098 142.204 27.6311ZM195.707 32.1315C194.703 32.9365 194.096 34.1344 193.737 35.3485C195.345 35.3689 196.954 35.3661 198.562 35.3633L199.869 35.3615C200.338 35.3612 200.808 35.3614 201.278 35.3628C201.425 34.2873 201.28 33.0487 200.433 32.279C199.167 31.1343 197.039 31.035 195.707 32.1315ZM113.202 35.3556C113.522 34.1203 114.171 32.9329 115.17 32.119C116.441 31.0739 118.412 31.1486 119.701 32.1172C120.676 32.8656 120.913 34.2162 120.708 35.3679C120.047 35.3642 119.387 35.3631 118.726 35.363L117.752 35.3636L117.285 35.3641C115.925 35.3656 114.564 35.3672 113.202 35.3556ZM110.007 30.6829C112.881 26.8704 118.689 26.1915 122.751 28.3617C126.483 30.6259 126.87 35.6934 126.033 39.5643C124.926 39.5634 123.818 39.5613 122.711 39.5591C119.334 39.5526 115.957 39.546 112.58 39.577C112.685 40.6788 112.842 41.8428 113.554 42.7388C114.642 44.1518 116.535 44.6494 118.248 44.6248C120.546 44.7205 122.825 44.2282 125.004 43.5263C124.985 44.1561 124.95 44.7854 124.914 45.4151L124.913 45.434L124.912 45.4527C124.872 46.1714 124.831 46.8905 124.816 47.6107C121.849 48.5934 118.687 48.8048 115.584 48.7375C113.24 48.6803 110.824 47.7367 109.346 45.8617C107.854 44.0186 107.279 41.6065 107.214 39.2784C107.38 36.2496 108.127 33.1249 110.007 30.6829ZM5.92466 35.3538C6.34751 33.9605 7.0853 32.5332 8.39316 31.7904C9.59653 31.0864 11.1661 31.2588 12.3089 31.9982C13.37 32.7234 13.6776 34.1469 13.5013 35.3538C10.9759 35.3697 8.45029 35.3697 5.92466 35.3538ZM4.19346 29.1953C6.04185 27.6595 8.51231 27.0553 10.8817 27.1691C13.4464 27.1619 16.2137 28.1448 17.641 30.3932C19.3719 33.0912 19.3275 36.5002 18.8155 39.552C16.4439 39.5595 14.0731 39.5585 11.702 39.5575C9.58994 39.5566 7.47764 39.5558 5.36484 39.5609C5.36094 40.8921 5.74521 42.3156 6.76694 43.2312C7.96323 44.3244 9.66782 44.6653 11.2442 44.6156C13.4535 44.6867 15.6344 44.1784 17.7298 43.5243C17.6722 44.1616 17.6656 44.8012 17.659 45.4405C17.6515 46.1636 17.6439 46.8864 17.5626 47.6053C14.5606 48.5721 11.3685 48.81 8.23154 48.7266C5.72373 48.6486 3.1981 47.5036 1.75303 45.4032C0.0147463 42.8687 -0.314111 39.5982 0.258155 36.6336C0.77378 33.8465 1.94517 31.0241 4.19346 29.1953Z"
        fill="#000" fill-rule="evenodd" />
</svg>