<svg fill="none" height="44" viewBox="0 0 44 44" width="44" xmlns="http://www.w3.org/2000/svg">
    <path
        d="M28.875 2.75C35.7095 2.75 41.25 8.29048 41.25 15.125C41.25 21.9595 35.7095 27.5 28.875 27.5C27.2449 27.5 25.6888 27.1842 24.2635 26.6115L20.625 30.25H16.5V35.75H11V41.25H2.75V34.375L17.3885 19.7365C16.8158 18.3112 16.5 16.7551 16.5 15.125C16.5 8.29048 22.0405 2.75 28.875 2.75ZM28.875 0C20.5233 0 13.75 6.76921 13.75 15.125C13.75 16.4404 13.9171 17.7334 14.2483 18.9876L0.604055 32.6318C0.217311 33.0187 3.11757e-05 33.5432 0 34.0902L0 41.9375C0 43.0766 0.923398 44 2.0625 44H11.6875C12.8266 44 13.75 43.0766 13.75 41.9375V38.5H17.1875C18.3266 38.5 19.25 37.5766 19.25 36.4375V33H20.9098C21.4568 33 21.9814 32.7827 22.3682 32.3959L25.0125 29.7517C26.2666 30.0829 27.5596 30.25 28.875 30.25C37.2267 30.25 44 23.4808 44 15.125C44 6.77325 37.2308 0 28.875 0ZM33 9.28125C33.9477 9.28125 34.7188 10.0523 34.7188 11C34.7188 11.9477 33.9477 12.7188 33 12.7188C32.0523 12.7188 31.2812 11.9477 31.2812 11C31.2812 10.0523 32.0523 9.28125 33 9.28125ZM33 6.875C30.7218 6.875 28.875 8.7218 28.875 11C28.875 13.2782 30.7218 15.125 33 15.125C35.2782 15.125 37.125 13.2782 37.125 11C37.125 8.7218 35.2782 6.875 33 6.875Z"
        fill="#000" />
</svg>
