<svg fill="none" height="44" viewBox="0 0 33 44" width="33" xmlns="http://www.w3.org/2000/svg">
    <path
        d="M28.875 21.9992H8.25V13.7492C8.25 7.68198 10.4328 2.74916 16.5 2.74916C22.5672 2.74916 24.75 7.68198 24.75 13.7492V15.4679C24.75 16.0351 25.2141 16.4992 25.7812 16.4992H26.4688C27.0359 16.4992 27.5 16.0351 27.5 15.4679V13.8781C27.5 6.2812 24.1398 0.0249461 16.543 -0.000835141C8.9375 -0.0266164 5.5 6.15229 5.5 13.7492V21.9992H4.125C1.84766 21.9992 0 23.8468 0 26.1242V39.8742C0 42.1515 1.84766 43.9992 4.125 43.9992H28.875C31.1523 43.9992 33 42.1515 33 39.8742V26.1242C33 23.8468 31.1523 21.9992 28.875 21.9992ZM30.25 39.8742C30.25 40.6304 29.6313 41.2492 28.875 41.2492H4.125C3.36875 41.2492 2.75 40.6304 2.75 39.8742V26.1242C2.75 25.3679 3.36875 24.7492 4.125 24.7492H28.875C29.6313 24.7492 30.25 25.3679 30.25 26.1242V39.8742Z"
        fill="#000" />
</svg>
