<svg fill="none" height="44" viewBox="0 0 50 44" width="50" xmlns="http://www.w3.org/2000/svg">
    <g clip-path="url(#clip0)">
        <path
            d="M37.125 22C36.3688 22 35.75 22.6187 35.75 23.375C35.75 24.1313 36.3688 24.75 37.125 24.75C37.8813 24.75 38.5 24.1313 38.5 23.375C38.5 22.6187 37.8813 22 37.125 22ZM48.125 19.25H45.5899C44.636 17.0758 43.1235 15.2195 41.25 13.8016V8.25H39.875C37.2711 8.25 34.9078 9.11797 32.9227 10.5016C32.957 10.2094 33 9.92578 33 9.625C33 4.30547 28.6945 0 23.375 0C18.0555 0 13.75 4.30547 13.75 9.625C13.75 10.4586 13.8875 11.2492 14.0938 12.0227C9.88283 13.7242 6.70314 17.4453 5.77502 22H4.81252C3.54064 22 2.53517 20.8398 2.79298 19.525C2.98205 18.5453 3.90158 17.875 4.89845 17.875H4.98439C5.26798 17.875 5.50002 17.643 5.50002 17.3594V15.6406C5.50002 15.357 5.26798 15.125 4.98439 15.125C2.53517 15.125 0.35236 16.8781 0.0429845 19.3016C-0.33514 22.2406 1.9508 24.75 4.81252 24.75H5.50002C5.50002 29.2359 7.68283 33.1805 11 35.6898V42.625C11 43.3812 11.6188 44 12.375 44H22C22.7563 44 23.375 43.3812 23.375 42.625V38.5H28.875V42.625C28.875 43.3812 29.4938 44 30.25 44H39.875C40.6313 44 41.25 43.3812 41.25 42.625V35.6727C42.2555 34.8992 43.175 34.0141 43.9399 33H48.125C48.8813 33 49.5 32.3812 49.5 31.625V20.625C49.5 19.8687 48.8813 19.25 48.125 19.25ZM23.375 2.75C27.1735 2.75 30.25 5.82656 30.25 9.625C30.25 10.0977 30.1985 10.5531 30.1125 11H19.25C18.382 11 17.5399 11.1031 16.7149 11.2578C16.5774 10.7336 16.5 10.1922 16.5 9.625C16.5 5.82656 19.5766 2.75 23.375 2.75ZM46.75 30.25H42.5649C41.1039 32.175 41.1039 32.3211 38.5 34.3148V41.25H31.625V35.75H20.625V41.25H13.75V34.3148C8.17267 30.1039 8.25002 26.2797 8.25002 24.75C8.25002 18.6828 13.1828 13.75 19.25 13.75H33.1461C34.5985 12.5898 35.9992 11.4727 38.5 11.1031V15.168C41.9117 17.7547 42.2813 18.5453 43.7938 22H46.75V30.25Z"
            fill="#000" />
    </g>
    <defs>
        <clipPath id="clip0">
            <rect fill="#000" height="44" width="49.5" />
        </clipPath>
    </defs>
</svg>
