<?xml version="1.0" encoding="utf-8"?>
<svg viewBox="222.165 125.796 25.791 27.638" xmlns="http://www.w3.org/2000/svg">
    <path style=""
        d="M25.4662 10.1141H5.61669C4.31278 10.1141 3.06227 9.59609 2.14027 8.67408C1.21826 7.75208 0.700287 6.50157 0.700287 5.19766C0.700287 3.89374 1.21826 2.64324 2.14027 1.72123C3.06227 0.799227 4.31278 0.28125 5.61669 0.28125H25.4662C25.7382 0.28125 25.999 0.389282 26.1913 0.58158C26.3836 0.773878 26.4916 1.03469 26.4916 1.30664V9.08867C26.4916 9.36062 26.3836 9.62143 26.1913 9.81373C25.999 10.006 25.7382 10.1141 25.4662 10.1141ZM5.61669 2.33203C4.85668 2.33203 4.1278 2.63394 3.59039 3.17135C3.05298 3.70876 2.75107 4.43764 2.75107 5.19766C2.75107 5.95767 3.05298 6.68655 3.59039 7.22396C4.1278 7.76137 4.85668 8.06328 5.61669 8.06328H24.4408V2.33203H5.61669Z"
        transform="matrix(1, 0, 0, 1, 221.464233, 125.515099)" />
    <path style=""
        d="M25.4662 27.9196H5.61669C4.31322 27.9182 3.06356 27.3997 2.14187 26.478C1.22018 25.5563 0.701734 24.3067 0.700287 23.0032V5.19763C0.700287 4.92568 0.808319 4.66487 1.00062 4.47257C1.19291 4.28027 1.45373 4.17224 1.72568 4.17224C1.99763 4.17224 2.25844 4.28027 2.45074 4.47257C2.64304 4.66487 2.75107 4.92568 2.75107 5.19763V23.0032C2.75251 23.7628 3.05489 24.4908 3.59199 25.0279C4.12908 25.565 4.85713 25.8674 5.61669 25.8688H24.4408V9.08865C24.4408 8.8167 24.5488 8.55589 24.7411 8.36359C24.9334 8.17129 25.1943 8.06326 25.4662 8.06326C25.7382 8.06326 25.999 8.17129 26.1913 8.36359C26.3836 8.55589 26.4916 8.8167 26.4916 9.08865V26.8942C26.4916 27.1662 26.3836 27.427 26.1913 27.6193C25.999 27.8116 25.7382 27.9196 25.4662 27.9196Z"
        transform="matrix(1, 0, 0, 1, 221.464233, 125.515099)" />
    <path style=""
        d="M20.1813 21.0496C19.5324 21.0496 18.898 20.8571 18.3584 20.4966C17.8188 20.136 17.3982 19.6236 17.1499 19.024C16.9015 18.4244 16.8365 17.7647 16.9631 17.1282C17.0897 16.4917 17.4023 15.907 17.8611 15.4481C18.32 14.9892 18.9047 14.6767 19.5412 14.5501C20.1777 14.4235 20.8374 14.4885 21.437 14.7368C22.0366 14.9852 22.549 15.4057 22.9096 15.9453C23.2701 16.4849 23.4626 17.1193 23.4626 17.7683C23.4615 18.6382 23.1154 19.4722 22.5003 20.0873C21.8852 20.7024 21.0512 21.0485 20.1813 21.0496ZM20.1813 16.5378C19.938 16.5378 19.7001 16.61 19.4977 16.7452C19.2954 16.8804 19.1377 17.0726 19.0445 17.2974C18.9514 17.5223 18.927 17.7697 18.9745 18.0084C19.022 18.2471 19.1392 18.4663 19.3113 18.6384C19.4833 18.8105 19.7026 18.9277 19.9413 18.9751C20.18 19.0226 20.4274 18.9982 20.6522 18.9051C20.8771 18.812 21.0692 18.6543 21.2044 18.4519C21.3396 18.2496 21.4118 18.0117 21.4118 17.7683C21.4116 17.4421 21.2819 17.1293 21.0512 16.8987C20.8204 16.6681 20.5076 16.5385 20.1813 16.5385V16.5378Z"
        transform="matrix(1, 0, 0, 1, 221.464233, 125.515099)" />
    <path style=""
        d="M6.27089 10.114C5.99894 10.114 5.73813 10.006 5.54583 9.81371C5.35353 9.62141 5.2455 9.3606 5.2455 9.08865V5.19763C5.2455 4.92568 5.35353 4.66487 5.54583 4.47257C5.73813 4.28027 5.99894 4.17224 6.27089 4.17224H25.4662C25.7381 4.17224 25.999 4.28027 26.1913 4.47257C26.3836 4.66487 26.4916 4.92568 26.4916 5.19763C26.4916 5.46958 26.3836 5.73039 26.1913 5.92269C25.999 6.11499 25.7381 6.22302 25.4662 6.22302H7.29628V9.08865C7.29628 9.3606 7.18825 9.62141 6.99595 9.81371C6.80365 10.006 6.54284 10.114 6.27089 10.114Z"
        transform="matrix(1, 0, 0, 1, 221.464233, 125.515099)" />
</svg>